<?xml version="1.0" encoding="UTF-8" standalone="no"?>
<svg xmlns:xlink="http://www.w3.org/1999/xlink" xmlns="http://www.w3.org/2000/svg" version="1.1" baseProfile="full" width="462" height="145">
  <title>Solenoidspole</title>
  <defs>
    <clipPath id="image_clip">
      <rect x="-0.0" y="0.0" width="462.0" height="145.0"/>
    </clipPath>
    <path id="arrow1" stroke="none" fill="#000000" transform="scale(1.0)" d="M -4.5,0 L -4.5,3.0 L 9,0 L -4.5,-3.0 L -4.5,0 Z"/>
  </defs>
  <rect id="background" x="0" y="0" width="462" height="145" fill="#ffffff"/>
  <g id="image" transform="translate(0.0,145.0) scale(1.0,-1.0)" clip-path="url(#image_clip)">
    <g id="symbols_bg">
      <path stroke-width="13.2" stroke="#c88f6b" stroke-linecap="round" d="M 131.3214,41.9100 L 123.1071,98.8300  M 147.7500,41.9100 L 139.5357,98.8300  M 164.1786,41.9100 L 155.9643,98.8300  M 180.6071,41.9100 L 172.3929,98.8300  M 197.0357,41.9100 L 188.8214,98.8300  M 213.4643,41.9100 L 205.2500,98.8300  M 229.8929,41.9100 L 221.6786,98.8300  M 246.3214,41.9100 L 238.1071,98.8300  M 262.7500,41.9100 L 254.5357,98.8300  M 279.1786,41.9100 L 270.9643,98.8300  M 295.6071,41.9100 L 287.3929,98.8300  M 312.0357,41.9100 L 303.8214,98.8300  M 328.4643,41.9100 L 320.2500,98.8300  M 344.8929,41.9100 L 336.6786,98.8300 " fill="none"/>
    </g>
    <g id="fieldlines" fill="none" stroke="#000000" stroke-width="1.0" stroke-linejoin="round" stroke-linecap="round">
      <g id="fieldline1">
        <path d="M 234.00,13.26 C 254.09,12.45 278.28,16.55 319.55,41.91 C 305.55,42.67 279.34,43.03 234.00,43.00 C 194.78,42.98 169.03,42.63 156.67,41.91 C 190.91,21.17 212.48,14.13 234.00,13.26 Z"/>
        <g id="arrows1">
          <use xlink:href="#arrow1" transform="translate(234.00,13.42) rotate(-1.75)"/>
        </g>
      </g>
      <g id="fieldline2">
        <path d="M 361.15,-1.00 C 361.15,-1.00 357.23,39.62 352.85,43.70 C 344.41,51.55 315.18,51.64 234.00,51.62 C 157.20,51.60 131.08,51.32 122.73,44.50 C 116.25,39.18 115.37,9.54 115.26,-1.00"/>
        <g id="arrows2">
          <use xlink:href="#arrow1" transform="translate(358.23,21.65) rotate(99.10)"/>
          <use xlink:href="#arrow1" transform="translate(116.59,21.79) rotate(-95.59)"/>
        </g>
      </g>
      <g id="fieldline3">
        <path d="M 413.40,-1.00 C 369.48,51.14 354.48,53.50 351.29,54.52 C 337.78,58.85 320.44,59.13 234.00,59.12 C 151.38,59.11 134.20,58.82 121.26,54.74 C 117.48,53.55 100.19,49.65 59.12,-1.00"/>
        <g id="arrows3">
          <use xlink:href="#arrow1" transform="translate(388.87,26.06) rotate(134.61)"/>
          <use xlink:href="#arrow1" transform="translate(83.29,26.37) rotate(-133.89)"/>
        </g>
      </g>
      <g id="fieldline4">
        <path d="M 463.00,37.38 C 377.62,63.39 355.40,64.58 349.76,65.11 C 334.72,66.53 318.57,66.62 234.00,66.62 C 150.77,66.62 134.57,66.52 119.76,65.14 C 115.62,64.75 90.59,63.55 -1.00,35.15"/>
        <g id="arrows4">
          <use xlink:href="#arrow1" transform="translate(415.88,50.99) rotate(164.83)"/>
          <use xlink:href="#arrow1" transform="translate(46.05,49.00) rotate(-164.43)"/>
        </g>
      </g>
      <g id="fieldline5">
        <path d="M 463.00,103.95 C 377.40,77.50 354.15,76.16 348.24,75.60 C 333.42,74.22 317.32,74.12 234.00,74.12 C 149.57,74.12 133.26,74.21 118.24,75.63 C 114.39,75.99 90.40,77.04 -1.00,104.99"/>
        <g id="arrows5">
          <use xlink:href="#arrow1" transform="translate(415.93,90.17) rotate(-164.65)"/>
          <use xlink:href="#arrow1" transform="translate(46.10,91.31) rotate(164.61)"/>
        </g>
      </g>
      <g id="fieldline6">
        <path d="M 411.37,146.00 C 367.94,90.25 349.82,86.97 346.74,86.00 C 333.80,81.93 316.68,81.63 234.00,81.62 C 147.89,81.61 130.15,81.88 116.71,86.23 C 115.27,86.69 98.05,88.99 50.35,146.00"/>
        <g id="arrows6">
          <use xlink:href="#arrow1" transform="translate(387.13,117.41) rotate(-132.93)"/>
          <use xlink:href="#arrow1" transform="translate(75.45,118.14) rotate(133.99)"/>
        </g>
      </g>
      <g id="fieldline7">
        <path d="M 352.18,146.00 C 352.34,135.74 352.02,101.77 345.27,96.24 C 336.92,89.42 310.84,89.14 234.00,89.12 C 153.72,89.10 122.18,89.12 115.11,97.34 C 110.87,102.28 106.62,136.70 105.75,146.00 M 213.06,299.16 C 221.03,300.89 228.15,301.39 234.00,301.36
"/>
        <g id="arrows7">
          <use xlink:href="#arrow1" transform="translate(351.41,122.61) rotate(-94.68)"/>
          <use xlink:href="#arrow1" transform="translate(108.79,122.78) rotate(99.01)"/>
        </g>
      </g>
      <g id="fieldline8">
        <path d="M 234.00,127.48 C 246.96,126.96 269.84,124.44 311.34,98.83 C 295.60,97.97 266.08,97.76 234.00,97.74 C 186.93,97.71 160.46,98.13 148.46,98.83 C 181.21,118.61 205.93,128.60 234.00,127.48 Z"/>
        <g id="arrows8">
          <use xlink:href="#arrow1" transform="translate(233.99,127.32) rotate(-2.82)"/>
        </g>
      </g>
    </g>
    <g id="symbols">
      <defs>
        <g id="dot">
          <circle r="6.5" cy="0" stroke="#000000" cx="0" stroke-width="0.2" fill="#ffb380"/>
          <circle stroke="none" cx="0" r="2" cy="0" fill="#000000"/>
        </g>
        <g id="cross">
          <circle r="6.5" cy="0" stroke="#000000" cx="0" stroke-width="0.2" fill="#ffb380"/>
          <path stroke="#000000" stroke-width="1.2" stroke-linecap="butt" d="M -2.6,-2.6 L 2.6,2.6 M -2.6,2.6 L 2.6,-2.6" fill="none"/>
        </g>
      </defs>
      <use xlink:href="#dot" x="131.321428571" y="41.91"/>
      <use xlink:href="#cross" x="123.107142857" y="98.83"/>
      <use xlink:href="#dot" x="147.75" y="41.91"/>
      <use xlink:href="#cross" x="139.535714286" y="98.83"/>
      <use xlink:href="#dot" x="164.178571429" y="41.91"/>
      <use xlink:href="#cross" x="155.964285714" y="98.83"/>
      <use xlink:href="#dot" x="180.607142857" y="41.91"/>
      <use xlink:href="#cross" x="172.392857143" y="98.83"/>
      <use xlink:href="#dot" x="197.035714286" y="41.91"/>
      <use xlink:href="#cross" x="188.821428571" y="98.83"/>
      <use xlink:href="#dot" x="213.464285714" y="41.91"/>
      <use xlink:href="#cross" x="205.25" y="98.83"/>
      <use xlink:href="#dot" x="229.892857143" y="41.91"/>
      <use xlink:href="#cross" x="221.678571429" y="98.83"/>
      <use xlink:href="#dot" x="246.321428571" y="41.91"/>
      <use xlink:href="#cross" x="238.107142857" y="98.83"/>
      <use xlink:href="#dot" x="262.75" y="41.91"/>
      <use xlink:href="#cross" x="254.535714286" y="98.83"/>
      <use xlink:href="#dot" x="279.178571429" y="41.91"/>
      <use xlink:href="#cross" x="270.964285714" y="98.83"/>
      <use xlink:href="#dot" x="295.607142857" y="41.91"/>
      <use xlink:href="#cross" x="287.392857143" y="98.83"/>
      <use xlink:href="#dot" x="312.035714286" y="41.91"/>
      <use xlink:href="#cross" x="303.821428571" y="98.83"/>
      <use xlink:href="#dot" x="328.464285714" y="41.91"/>
      <use xlink:href="#cross" x="320.25" y="98.83"/>
      <use xlink:href="#dot" x="344.892857143" y="41.91"/>
      <use xlink:href="#cross" x="336.678571429" y="98.83"/>
    </g>
  </g>
</svg>
