<?xml version="1.0" encoding="utf-8" standalone="no"?>
<!DOCTYPE svg PUBLIC "-//W3C//DTD SVG 1.1//EN"
  "http://www.w3.org/Graphics/SVG/1.1/DTD/svg11.dtd">
<!-- Created with matplotlib (https://matplotlib.org/) -->
<svg height="329.76pt" version="1.1" viewBox="0 0 348.48 329.76" width="348.48pt" xmlns="http://www.w3.org/2000/svg" xmlns:xlink="http://www.w3.org/1999/xlink">
 <metadata>
  <rdf:RDF xmlns:cc="http://creativecommons.org/ns#" xmlns:dc="http://purl.org/dc/elements/1.1/" xmlns:rdf="http://www.w3.org/1999/02/22-rdf-syntax-ns#">
   <cc:Work>
    <dc:type rdf:resource="http://purl.org/dc/dcmitype/StillImage"/>
    <dc:date>2021-04-16T15:33:02.490839</dc:date>
    <dc:format>image/svg+xml</dc:format>
    <dc:creator>
     <cc:Agent>
      <dc:title>Matplotlib v3.3.4, https://matplotlib.org/</dc:title>
     </cc:Agent>
    </dc:creator>
   </cc:Work>
  </rdf:RDF>
 </metadata>
 <defs>
  <style type="text/css">*{stroke-linecap:butt;stroke-linejoin:round;}</style>
 </defs>
 <g id="figure_1">
  <g id="patch_1">
   <path d="M 0 329.76 
L 348.48 329.76 
L 348.48 0 
L 0 0 
z
" style="fill:#ffffff;"/>
  </g>
  <g id="patch_2">
   <path d="M 9.36 329.76 
L 339.12 329.76 
L 339.12 0 
L 9.36 0 
z
" style="fill:#ffffff;"/>
  </g>
  <g id="pane3d_1">
   <g id="patch_3">
    <path d="M 317.647249 245.876931 
L 241.48329 228.960491 
L 241.70523 81.038844 
L 318.196206 80.617162 
" style="fill:none;opacity:0;"/>
   </g>
  </g>
  <g id="pane3d_2">
   <g id="patch_4">
    <path d="M 49.874968 234.121198 
L 241.48329 228.960491 
L 241.70523 81.038844 
L 49.403269 80.910238 
" style="fill:none;opacity:0;"/>
   </g>
  </g>
  <g id="pane3d_3">
   <g id="patch_5">
    <path d="M 105.736732 252.345304 
L 317.647249 245.876931 
L 241.48329 228.960491 
L 49.874968 234.121198 
" style="fill:none;opacity:0;"/>
   </g>
  </g>
  <g id="axis3d_1">
   <g id="line2d_1">
    <path d="M 317.647249 245.876931 
L 105.736732 252.345304 
" style="fill:none;stroke:#000000;stroke-linecap:square;stroke-width:0.8;"/>
   </g>
   <g id="text_1">
    <!-- x -->
    <g transform="translate(221.802581 279.563599)scale(0.1 -0.1)">
     <defs>
      <path d="M 54.890625 54.6875 
L 35.109375 28.078125 
L 55.90625 0 
L 45.3125 0 
L 29.390625 21.484375 
L 13.484375 0 
L 2.875 0 
L 24.125 28.609375 
L 4.6875 54.6875 
L 15.28125 54.6875 
L 29.78125 35.203125 
L 44.28125 54.6875 
z
" id="DejaVuSans-120"/>
     </defs>
     <use xlink:href="#DejaVuSans-120"/>
    </g>
   </g>
  </g>
  <g id="axis3d_2">
   <g id="line2d_2">
    <path d="M 49.874968 234.121198 
L 105.736732 252.345304 
" style="fill:none;stroke:#000000;stroke-linecap:square;stroke-width:0.8;"/>
   </g>
   <g id="text_2">
    <!-- y -->
    <g transform="translate(42.746227 269.951945)scale(0.1 -0.1)">
     <defs>
      <path d="M 32.171875 -5.078125 
Q 28.375 -14.84375 24.75 -17.8125 
Q 21.140625 -20.796875 15.09375 -20.796875 
L 7.90625 -20.796875 
L 7.90625 -13.28125 
L 13.1875 -13.28125 
Q 16.890625 -13.28125 18.9375 -11.515625 
Q 21 -9.765625 23.484375 -3.21875 
L 25.09375 0.875 
L 2.984375 54.6875 
L 12.5 54.6875 
L 29.59375 11.921875 
L 46.6875 54.6875 
L 56.203125 54.6875 
z
" id="DejaVuSans-121"/>
     </defs>
     <use xlink:href="#DejaVuSans-121"/>
    </g>
   </g>
  </g>
  <g id="axis3d_3">
   <g id="line2d_3">
    <path d="M 49.874968 234.121198 
L 49.403269 80.910238 
" style="fill:none;stroke:#000000;stroke-linecap:square;stroke-width:0.8;"/>
   </g>
   <g id="text_3">
    <!-- z -->
    <g transform="translate(11.197036 159.64684)scale(0.1 -0.1)">
     <defs>
      <path d="M 5.515625 54.6875 
L 48.1875 54.6875 
L 48.1875 46.484375 
L 14.40625 7.171875 
L 48.1875 7.171875 
L 48.1875 0 
L 4.296875 0 
L 4.296875 8.203125 
L 38.09375 47.515625 
L 5.515625 47.515625 
z
" id="DejaVuSans-122"/>
     </defs>
     <use xlink:href="#DejaVuSans-122"/>
    </g>
   </g>
  </g>
  <g id="axes_1">
   <g id="Line3DCollection_1">
    <path clip-path="url(#pdb0b688609)" d="M 178.696216 27.809711 
L 178.696216 160.423784 
" style="fill:none;stroke:#0080ff;stroke-width:1.5;"/>
    <path clip-path="url(#pdb0b688609)" d="M 178.696216 27.809711 
L 169.45903 66.293414 
" style="fill:none;stroke:#0080ff;stroke-width:1.5;"/>
    <path clip-path="url(#pdb0b688609)" d="M 178.696216 27.809711 
L 187.902034 66.355658 
" style="fill:none;stroke:#0080ff;stroke-width:1.5;"/>
   </g>
   <g id="Line3DCollection_2">
    <path clip-path="url(#pdb0b688609)" d="M 118.356089 83.98972 
L 178.696216 160.423784 
" style="fill:none;stroke:#ff1a80;stroke-opacity:0.3;stroke-width:1.5;"/>
    <path clip-path="url(#pdb0b688609)" d="M 263.513752 83.980265 
L 178.696216 160.423784 
" style="fill:none;stroke:#ff1a80;stroke-opacity:0.3;stroke-width:1.5;"/>
    <path clip-path="url(#pdb0b688609)" d="M 279.991461 83.964152 
L 178.696216 160.423784 
" style="fill:none;stroke:#ff1a80;stroke-opacity:0.3;stroke-width:1.5;"/>
    <path clip-path="url(#pdb0b688609)" d="M 254.731117 83.98445 
L 178.696216 160.423784 
" style="fill:none;stroke:#ff1a80;stroke-opacity:0.3;stroke-width:1.5;"/>
    <path clip-path="url(#pdb0b688609)" d="M 115.36953 83.988877 
L 178.696216 160.423784 
" style="fill:none;stroke:#ff1a80;stroke-opacity:0.3;stroke-width:1.5;"/>
    <path clip-path="url(#pdb0b688609)" d="M 279.287434 83.95236 
L 178.696216 160.423784 
" style="fill:none;stroke:#ff1a80;stroke-opacity:0.3;stroke-width:1.5;"/>
    <path clip-path="url(#pdb0b688609)" d="M 240.134406 83.989418 
L 178.696216 160.423784 
" style="fill:none;stroke:#ff1a80;stroke-opacity:0.3;stroke-width:1.5;"/>
    <path clip-path="url(#pdb0b688609)" d="M 183.101225 83.997004 
L 178.696216 160.423784 
" style="fill:none;stroke:#ff1a80;stroke-opacity:0.3;stroke-width:1.5;"/>
    <path clip-path="url(#pdb0b688609)" d="M 202.393592 83.996005 
L 178.696216 160.423784 
" style="fill:none;stroke:#ff1a80;stroke-opacity:0.3;stroke-width:1.5;"/>
    <path clip-path="url(#pdb0b688609)" d="M 207.963648 83.99545 
L 178.696216 160.423784 
" style="fill:none;stroke:#ff1a80;stroke-opacity:0.3;stroke-width:1.5;"/>
    <path clip-path="url(#pdb0b688609)" d="M 138.208667 83.993935 
L 178.696216 160.423784 
" style="fill:none;stroke:#ff1a80;stroke-opacity:0.3;stroke-width:1.5;"/>
    <path clip-path="url(#pdb0b688609)" d="M 79.219602 83.95037 
L 178.696216 160.423784 
" style="fill:none;stroke:#ff1a80;stroke-opacity:0.3;stroke-width:1.5;"/>
    <path clip-path="url(#pdb0b688609)" d="M 124.705047 83.926862 
L 178.696216 160.423784 
" style="fill:none;stroke:#ff1a80;stroke-opacity:0.3;stroke-width:1.5;"/>
    <path clip-path="url(#pdb0b688609)" d="M 103.29664 83.98471 
L 178.696216 160.423784 
" style="fill:none;stroke:#ff1a80;stroke-opacity:0.3;stroke-width:1.5;"/>
    <path clip-path="url(#pdb0b688609)" d="M 267.607626 83.977807 
L 178.696216 160.423784 
" style="fill:none;stroke:#ff1a80;stroke-opacity:0.3;stroke-width:1.5;"/>
    <path clip-path="url(#pdb0b688609)" d="M 124.730823 83.991318 
L 178.696216 160.423784 
" style="fill:none;stroke:#ff1a80;stroke-opacity:0.3;stroke-width:1.5;"/>
    <path clip-path="url(#pdb0b688609)" d="M 90.567468 83.97831 
L 178.696216 160.423784 
" style="fill:none;stroke:#ff1a80;stroke-opacity:0.3;stroke-width:1.5;"/>
    <path clip-path="url(#pdb0b688609)" d="M 89.609045 83.977691 
L 178.696216 160.423784 
" style="fill:none;stroke:#ff1a80;stroke-opacity:0.3;stroke-width:1.5;"/>
    <path clip-path="url(#pdb0b688609)" d="M 275.277992 83.971507 
L 178.696216 160.423784 
" style="fill:none;stroke:#ff1a80;stroke-opacity:0.3;stroke-width:1.5;"/>
    <path clip-path="url(#pdb0b688609)" d="M 104.377081 83.985142 
L 178.696216 160.423784 
" style="fill:none;stroke:#ff1a80;stroke-opacity:0.3;stroke-width:1.5;"/>
    <path clip-path="url(#pdb0b688609)" d="M 81.528348 234.502626 
L 178.696216 160.423784 
" style="fill:none;stroke:#ff1a80;stroke-opacity:0.3;stroke-width:1.5;"/>
    <path clip-path="url(#pdb0b688609)" d="M 80.091335 234.931799 
L 178.696216 160.423784 
" style="fill:none;stroke:#ff1a80;stroke-opacity:0.3;stroke-width:1.5;"/>
    <path clip-path="url(#pdb0b688609)" d="M 280.266347 237.73191 
L 178.696216 160.423784 
" style="fill:none;stroke:#ff1a80;stroke-opacity:0.3;stroke-width:1.5;"/>
    <path clip-path="url(#pdb0b688609)" d="M 279.106551 238.552832 
L 178.696216 160.423784 
" style="fill:none;stroke:#ff1a80;stroke-opacity:0.3;stroke-width:1.5;"/>
    <path clip-path="url(#pdb0b688609)" d="M 221.855948 244.974067 
L 178.696216 160.423784 
" style="fill:none;stroke:#ff1a80;stroke-opacity:0.3;stroke-width:1.5;"/>
    <path clip-path="url(#pdb0b688609)" d="M 77.531617 238.100261 
L 178.696216 160.423784 
" style="fill:none;stroke:#ff1a80;stroke-opacity:0.3;stroke-width:1.5;"/>
    <path clip-path="url(#pdb0b688609)" d="M 201.228376 245.57769 
L 178.696216 160.423784 
" style="fill:none;stroke:#ff1a80;stroke-opacity:0.3;stroke-width:1.5;"/>
    <path clip-path="url(#pdb0b688609)" d="M 101.483882 231.437775 
L 178.696216 160.423784 
" style="fill:none;stroke:#ff1a80;stroke-opacity:0.3;stroke-width:1.5;"/>
    <path clip-path="url(#pdb0b688609)" d="M 267.566637 232.86046 
L 178.696216 160.423784 
" style="fill:none;stroke:#ff1a80;stroke-opacity:0.3;stroke-width:1.5;"/>
    <path clip-path="url(#pdb0b688609)" d="M 130.185728 244.743822 
L 178.696216 160.423784 
" style="fill:none;stroke:#ff1a80;stroke-opacity:0.3;stroke-width:1.5;"/>
    <path clip-path="url(#pdb0b688609)" d="M 118.356089 83.98972 
L 132.089842 113.553302 
" style="fill:none;stroke:#ff1a80;stroke-opacity:0.3;stroke-width:1.5;"/>
    <path clip-path="url(#pdb0b688609)" d="M 118.356089 83.98972 
L 138.571651 97.367352 
" style="fill:none;stroke:#ff1a80;stroke-opacity:0.3;stroke-width:1.5;"/>
    <path clip-path="url(#pdb0b688609)" d="M 263.513752 83.980265 
L 243.986795 113.886005 
" style="fill:none;stroke:#ff1a80;stroke-opacity:0.3;stroke-width:1.5;"/>
    <path clip-path="url(#pdb0b688609)" d="M 263.513752 83.980265 
L 234.816712 97.493331 
" style="fill:none;stroke:#ff1a80;stroke-opacity:0.3;stroke-width:1.5;"/>
    <path clip-path="url(#pdb0b688609)" d="M 279.991461 83.964152 
L 256.223265 114.447781 
" style="fill:none;stroke:#ff1a80;stroke-opacity:0.3;stroke-width:1.5;"/>
    <path clip-path="url(#pdb0b688609)" d="M 279.991461 83.964152 
L 245.155375 97.705139 
" style="fill:none;stroke:#ff1a80;stroke-opacity:0.3;stroke-width:1.5;"/>
    <path clip-path="url(#pdb0b688609)" d="M 254.731117 83.98445 
L 237.31405 113.739021 
" style="fill:none;stroke:#ff1a80;stroke-opacity:0.3;stroke-width:1.5;"/>
    <path clip-path="url(#pdb0b688609)" d="M 254.731117 83.98445 
L 229.116725 97.437724 
" style="fill:none;stroke:#ff1a80;stroke-opacity:0.3;stroke-width:1.5;"/>
    <path clip-path="url(#pdb0b688609)" d="M 115.36953 83.988877 
L 129.797861 113.583049 
" style="fill:none;stroke:#ff1a80;stroke-opacity:0.3;stroke-width:1.5;"/>
    <path clip-path="url(#pdb0b688609)" d="M 115.36953 83.988877 
L 136.604447 97.378631 
" style="fill:none;stroke:#ff1a80;stroke-opacity:0.3;stroke-width:1.5;"/>
    <path clip-path="url(#pdb0b688609)" d="M 279.287434 83.95236 
L 255.3623 114.854833 
" style="fill:none;stroke:#ff1a80;stroke-opacity:0.3;stroke-width:1.5;"/>
    <path clip-path="url(#pdb0b688609)" d="M 279.287434 83.95236 
L 244.28952 97.8579 
" style="fill:none;stroke:#ff1a80;stroke-opacity:0.3;stroke-width:1.5;"/>
    <path clip-path="url(#pdb0b688609)" d="M 240.134406 83.989418 
L 226.145567 113.563979 
" style="fill:none;stroke:#ff1a80;stroke-opacity:0.3;stroke-width:1.5;"/>
    <path clip-path="url(#pdb0b688609)" d="M 240.134406 83.989418 
L 219.544424 97.3714 
" style="fill:none;stroke:#ff1a80;stroke-opacity:0.3;stroke-width:1.5;"/>
    <path clip-path="url(#pdb0b688609)" d="M 183.101225 83.997004 
L 182.107556 113.295454 
" style="fill:none;stroke:#ff1a80;stroke-opacity:0.3;stroke-width:1.5;"/>
    <path clip-path="url(#pdb0b688609)" d="M 183.101225 83.997004 
L 181.636767 97.269439 
" style="fill:none;stroke:#ff1a80;stroke-opacity:0.3;stroke-width:1.5;"/>
    <path clip-path="url(#pdb0b688609)" d="M 202.393592 83.996005 
L 197.0414 113.330893 
" style="fill:none;stroke:#ff1a80;stroke-opacity:0.3;stroke-width:1.5;"/>
    <path clip-path="url(#pdb0b688609)" d="M 202.393592 83.996005 
L 194.506937 97.28291 
" style="fill:none;stroke:#ff1a80;stroke-opacity:0.3;stroke-width:1.5;"/>
    <path clip-path="url(#pdb0b688609)" d="M 207.963648 83.99545 
L 201.348895 113.350575 
" style="fill:none;stroke:#ff1a80;stroke-opacity:0.3;stroke-width:1.5;"/>
    <path clip-path="url(#pdb0b688609)" d="M 207.963648 83.99545 
L 198.217484 97.29039 
" style="fill:none;stroke:#ff1a80;stroke-opacity:0.3;stroke-width:1.5;"/>
    <path clip-path="url(#pdb0b688609)" d="M 138.208667 83.993935 
L 147.37639 113.404269 
" style="fill:none;stroke:#ff1a80;stroke-opacity:0.3;stroke-width:1.5;"/>
    <path clip-path="url(#pdb0b688609)" d="M 138.208667 83.993935 
L 151.712882 97.310789 
" style="fill:none;stroke:#ff1a80;stroke-opacity:0.3;stroke-width:1.5;"/>
    <path clip-path="url(#pdb0b688609)" d="M 79.219602 83.95037 
L 102.933153 114.92322 
" style="fill:none;stroke:#ff1a80;stroke-opacity:0.3;stroke-width:1.5;"/>
    <path clip-path="url(#pdb0b688609)" d="M 79.219602 83.95037 
L 113.896681 97.883507 
" style="fill:none;stroke:#ff1a80;stroke-opacity:0.3;stroke-width:1.5;"/>
    <path clip-path="url(#pdb0b688609)" d="M 124.705047 83.926862 
L 137.915565 115.723504 
" style="fill:none;stroke:#ff1a80;stroke-opacity:0.3;stroke-width:1.5;"/>
    <path clip-path="url(#pdb0b688609)" d="M 124.705047 83.926862 
L 143.949655 98.181923 
" style="fill:none;stroke:#ff1a80;stroke-opacity:0.3;stroke-width:1.5;"/>
    <path clip-path="url(#pdb0b688609)" d="M 103.29664 83.98471 
L 120.562747 113.729869 
" style="fill:none;stroke:#ff1a80;stroke-opacity:0.3;stroke-width:1.5;"/>
    <path clip-path="url(#pdb0b688609)" d="M 103.29664 83.98471 
L 128.690138 97.434259 
" style="fill:none;stroke:#ff1a80;stroke-opacity:0.3;stroke-width:1.5;"/>
    <path clip-path="url(#pdb0b688609)" d="M 267.607626 83.977807 
L 247.077928 113.972119 
" style="fill:none;stroke:#ff1a80;stroke-opacity:0.3;stroke-width:1.5;"/>
    <path clip-path="url(#pdb0b688609)" d="M 267.607626 83.977807 
L 237.449412 97.525873 
" style="fill:none;stroke:#ff1a80;stroke-opacity:0.3;stroke-width:1.5;"/>
    <path clip-path="url(#pdb0b688609)" d="M 124.730823 83.991318 
L 136.989682 113.496845 
" style="fill:none;stroke:#ff1a80;stroke-opacity:0.3;stroke-width:1.5;"/>
    <path clip-path="url(#pdb0b688609)" d="M 124.730823 83.991318 
L 142.780295 97.345934 
" style="fill:none;stroke:#ff1a80;stroke-opacity:0.3;stroke-width:1.5;"/>
    <path clip-path="url(#pdb0b688609)" d="M 90.567468 83.97831 
L 110.904226 113.95449 
" style="fill:none;stroke:#ff1a80;stroke-opacity:0.3;stroke-width:1.5;"/>
    <path clip-path="url(#pdb0b688609)" d="M 90.567468 83.97831 
L 120.44478 97.519213 
" style="fill:none;stroke:#ff1a80;stroke-opacity:0.3;stroke-width:1.5;"/>
    <path clip-path="url(#pdb0b688609)" d="M 89.609045 83.977691 
L 110.182161 113.976165 
" style="fill:none;stroke:#ff1a80;stroke-opacity:0.3;stroke-width:1.5;"/>
    <path clip-path="url(#pdb0b688609)" d="M 89.609045 83.977691 
L 119.830455 97.527401 
" style="fill:none;stroke:#ff1a80;stroke-opacity:0.3;stroke-width:1.5;"/>
    <path clip-path="url(#pdb0b688609)" d="M 275.277992 83.971507 
L 252.810015 114.192151 
" style="fill:none;stroke:#ff1a80;stroke-opacity:0.3;stroke-width:1.5;"/>
    <path clip-path="url(#pdb0b688609)" d="M 275.277992 83.971507 
L 242.30724 97.608899 
" style="fill:none;stroke:#ff1a80;stroke-opacity:0.3;stroke-width:1.5;"/>
    <path clip-path="url(#pdb0b688609)" d="M 104.377081 83.985142 
L 121.386893 113.714684 
" style="fill:none;stroke:#ff1a80;stroke-opacity:0.3;stroke-width:1.5;"/>
    <path clip-path="url(#pdb0b688609)" d="M 104.377081 83.985142 
L 129.395468 97.42851 
" style="fill:none;stroke:#ff1a80;stroke-opacity:0.3;stroke-width:1.5;"/>
    <path clip-path="url(#pdb0b688609)" d="M 81.528348 234.502626 
L 114.694032 221.655794 
" style="fill:none;stroke:#ff1a80;stroke-opacity:0.3;stroke-width:1.5;"/>
    <path clip-path="url(#pdb0b688609)" d="M 81.528348 234.502626 
L 104.054193 204.90543 
" style="fill:none;stroke:#ff1a80;stroke-opacity:0.3;stroke-width:1.5;"/>
    <path clip-path="url(#pdb0b688609)" d="M 80.091335 234.931799 
L 113.810922 221.913997 
" style="fill:none;stroke:#ff1a80;stroke-opacity:0.3;stroke-width:1.5;"/>
    <path clip-path="url(#pdb0b688609)" d="M 80.091335 234.931799 
L 103.000562 205.169832 
" style="fill:none;stroke:#ff1a80;stroke-opacity:0.3;stroke-width:1.5;"/>
    <path clip-path="url(#pdb0b688609)" d="M 280.266347 237.73191 
L 245.109656 223.586332 
" style="fill:none;stroke:#ff1a80;stroke-opacity:0.3;stroke-width:1.5;"/>
    <path clip-path="url(#pdb0b688609)" d="M 280.266347 237.73191 
L 256.332173 206.886332 
" style="fill:none;stroke:#ff1a80;stroke-opacity:0.3;stroke-width:1.5;"/>
    <path clip-path="url(#pdb0b688609)" d="M 279.106551 238.552832 
L 244.229683 224.072611 
" style="fill:none;stroke:#ff1a80;stroke-opacity:0.3;stroke-width:1.5;"/>
    <path clip-path="url(#pdb0b688609)" d="M 279.106551 238.552832 
L 255.348828 207.386766 
" style="fill:none;stroke:#ff1a80;stroke-opacity:0.3;stroke-width:1.5;"/>
    <path clip-path="url(#pdb0b688609)" d="M 221.855948 244.974067 
L 206.462381 227.815013 
" style="fill:none;stroke:#ff1a80;stroke-opacity:0.3;stroke-width:1.5;"/>
    <path clip-path="url(#pdb0b688609)" d="M 221.855948 244.974067 
L 211.322061 211.257999 
" style="fill:none;stroke:#ff1a80;stroke-opacity:0.3;stroke-width:1.5;"/>
    <path clip-path="url(#pdb0b688609)" d="M 77.531617 238.100261 
L 112.602978 223.804751 
" style="fill:none;stroke:#ff1a80;stroke-opacity:0.3;stroke-width:1.5;"/>
    <path clip-path="url(#pdb0b688609)" d="M 77.531617 238.100261 
L 101.414043 207.111035 
" style="fill:none;stroke:#ff1a80;stroke-opacity:0.3;stroke-width:1.5;"/>
    <path clip-path="url(#pdb0b688609)" d="M 201.228376 245.57769 
L 193.172507 228.161324 
" style="fill:none;stroke:#ff1a80;stroke-opacity:0.3;stroke-width:1.5;"/>
    <path clip-path="url(#pdb0b688609)" d="M 201.228376 245.57769 
L 195.713374 211.618023 
" style="fill:none;stroke:#ff1a80;stroke-opacity:0.3;stroke-width:1.5;"/>
    <path clip-path="url(#pdb0b688609)" d="M 101.483882 231.437775 
L 127.480808 219.797111 
" style="fill:none;stroke:#ff1a80;stroke-opacity:0.3;stroke-width:1.5;"/>
    <path clip-path="url(#pdb0b688609)" d="M 101.483882 231.437775 
L 119.101044 203.007005 
" style="fill:none;stroke:#ff1a80;stroke-opacity:0.3;stroke-width:1.5;"/>
    <path clip-path="url(#pdb0b688609)" d="M 267.566637 232.86046 
L 237.4528 220.663139 
" style="fill:none;stroke:#ff1a80;stroke-opacity:0.3;stroke-width:1.5;"/>
    <path clip-path="url(#pdb0b688609)" d="M 267.566637 232.86046 
L 247.138181 203.890486 
" style="fill:none;stroke:#ff1a80;stroke-opacity:0.3;stroke-width:1.5;"/>
    <path clip-path="url(#pdb0b688609)" d="M 130.185728 244.743822 
L 147.471732 227.682671 
" style="fill:none;stroke:#ff1a80;stroke-opacity:0.3;stroke-width:1.5;"/>
    <path clip-path="url(#pdb0b688609)" d="M 130.185728 244.743822 
L 142.012705 211.120497 
" style="fill:none;stroke:#ff1a80;stroke-opacity:0.3;stroke-width:1.5;"/>
   </g>
  </g>
 </g>
 <defs>
  <clipPath id="pdb0b688609">
   <rect height="329.76" width="329.76" x="9.36" y="0"/>
  </clipPath>
 </defs>
</svg>
